<?xml version="1.0"?>
<svg xmlns="http://www.w3.org/2000/svg" viewBox="0 0 24 24" width="24px" height="24px">
    <path d="M 18 2 L 18 5 L 14.574219 5 C 13.864289 5 13.205262 5.3788628 12.847656 5.9921875 L 10.5 10.015625 L 8.1523438 5.9921875 C 7.7947374 5.3788628 7.1357108 5 6.4257812 5 L 2 5 L 2 7 L 6.4257812 7 L 9.3417969 12 L 6.4257812 17 L 2 17 L 2 19 L 6.4257812 19 C 7.1357139 19 7.7966906 18.621137 8.1542969 18.007812 L 10.5 13.984375 L 12.847656 18.009766 C 13.205994 18.620931 13.864289 19 14.574219 19 L 18 19 L 18 22 L 22 18 L 18 14 L 18 17 L 14.574219 17 L 14.572266 16.998047 L 11.658203 12.001953 L 14.574219 7 L 18 7 L 18 10 L 22 6 L 18 2 z"/>
</svg>
