<svg width="32" height="32" xmlns="http://www.w3.org/2000/svg" xmlns:svg="http://www.w3.org/2000/svg">
  <g id="twitter-icon">
    <path d="m16,0c-8.837,0 -16,7.163 -16,16c0,8.836 7.163,16 16,16s16,-7.164 16,-16c0,-8.837 -7.163,-16 -16,-16z" fill="#00acee" id="twitter-icon-circle"/>
    <path d="m18.226,8.886c-1.59,0.579 -2.595,2.071 -2.481,3.704l0.038,0.63l-0.636,-0.077c-2.315,-0.296 -4.338,-1.299 -6.056,-2.984l-0.84,-0.836l-0.215,0.617c-0.458,1.376 -0.165,2.83 0.789,3.808c0.509,0.54 0.394,0.617 -0.483,0.296c-0.305,-0.103 -0.573,-0.18 -0.598,-0.141c-0.089,0.09 0.216,1.26 0.458,1.724c0.331,0.644 1.005,1.273 1.743,1.647l0.624,0.296l-0.739,0.011c-0.712,0 -0.738,0.013 -0.661,0.284c0.254,0.836 1.259,1.724 2.379,2.11l0.789,0.27l-0.687,0.412c-1.018,0.593 -2.214,0.927 -3.41,0.951c-0.573,0.013 -1.044,0.064 -1.044,0.103c0,0.128 1.553,0.848 2.455,1.132c2.71,0.836 5.929,0.475 8.346,-0.952c1.718,-1.016 3.435,-3.036 4.237,-4.992c0.433,-1.041 0.865,-2.945 0.865,-3.858c0,-0.592 0.038,-0.669 0.75,-1.376c0.42,-0.412 0.814,-0.862 0.891,-0.99c0.128,-0.245 0.114,-0.245 -0.534,-0.026c-1.081,0.386 -1.234,0.335 -0.699,-0.244c0.394,-0.412 0.865,-1.158 0.865,-1.376c0,-0.038 -0.191,0.026 -0.407,0.141c-0.229,0.129 -0.738,0.322 -1.12,0.437l-0.687,0.219l-0.623,-0.426c-0.344,-0.231 -0.826,-0.489 -1.081,-0.566c-0.65,-0.18 -1.642,-0.154 -2.228,0.052z" fill="#ffffff" id="twitter-icon-birdy"/>
  </g>
</svg>
